<?xml version="1.0" encoding="UTF-8" standalone="no"?>
<!DOCTYPE svg PUBLIC "-//W3C//DTD SVG 1.1//EN" "http://www.w3.org/Graphics/SVG/1.1/DTD/svg11.dtd">
<svg width="100%" height="100%" viewBox="0 0 800 800" version="1.1" xmlns="http://www.w3.org/2000/svg" xmlns:xlink="http://www.w3.org/1999/xlink" xml:space="preserve" xmlns:serif="http://www.serif.com/" style="fill-rule:evenodd;clip-rule:evenodd;stroke-linejoin:round;stroke-miterlimit:2;">
    <g id="Orange" transform="matrix(1,0,0,1,350,350)">
        <circle cx="375" cy="375" r="25" style="fill:rgb(174,45,104);"/>
    </g>
    <g id="Not-Orange" serif:id="Not Orange">
        <g id="Right" transform="matrix(1,0,0,1,-50,-50)">
            <g transform="matrix(1,0,0,1,400,300)">
                <circle cx="375" cy="375" r="25" style="fill:white;fill-opacity:0.1;"/>
            </g>
            <g transform="matrix(1,0,0,1,400,200)">
                <circle cx="375" cy="375" r="25" style="fill:white;fill-opacity:0.1;"/>
            </g>
            <g transform="matrix(1,0,0,1,400,100)">
                <circle cx="375" cy="375" r="25" style="fill:white;fill-opacity:0.1;"/>
            </g>
            <g transform="matrix(1,0,0,1,400,0)">
                <circle cx="375" cy="375" r="25" style="fill:white;fill-opacity:0.1;"/>
            </g>
            <g transform="matrix(1,0,0,1,400,-100)">
                <circle cx="375" cy="375" r="25" style="fill:white;fill-opacity:0.1;"/>
            </g>
            <g transform="matrix(1,0,0,1,400,-200)">
                <circle cx="375" cy="375" r="25" style="fill:white;fill-opacity:0.1;"/>
            </g>
            <g transform="matrix(1,0,0,1,400,-300)">
                <circle cx="375" cy="375" r="25" style="fill:white;fill-opacity:0.1;"/>
            </g>
        </g>
        <g id="Right1" serif:id="Right" transform="matrix(1,0,0,1,-150,-50)">
            <g transform="matrix(1,0,0,1,400,400)">
                <circle cx="375" cy="375" r="25" style="fill:white;fill-opacity:0.1;"/>
            </g>
            <g transform="matrix(1,0,0,1,400,300)">
                <circle cx="375" cy="375" r="25" style="fill:white;fill-opacity:0.1;"/>
            </g>
            <g transform="matrix(1,0,0,1,400,200)">
                <circle cx="375" cy="375" r="25" style="fill:white;fill-opacity:0.1;"/>
            </g>
            <g transform="matrix(1,0,0,1,400,100)">
                <circle cx="375" cy="375" r="25" style="fill:white;fill-opacity:0.1;"/>
            </g>
            <g transform="matrix(1,0,0,1,400,0)">
                <circle cx="375" cy="375" r="25" style="fill:white;fill-opacity:0.1;"/>
            </g>
            <g transform="matrix(1,0,0,1,400,-100)">
                <circle cx="375" cy="375" r="25" style="fill:white;fill-opacity:0.1;"/>
            </g>
            <g transform="matrix(1,0,0,1,400,-200)">
                <circle cx="375" cy="375" r="25" style="fill:white;fill-opacity:0.1;"/>
            </g>
        </g>
        <g id="Right2" serif:id="Right" transform="matrix(1,0,0,1,-250,-50)">
            <g transform="matrix(1,0,0,1,400,400)">
                <circle cx="375" cy="375" r="25" style="fill:white;fill-opacity:0.1;"/>
            </g>
            <g transform="matrix(1,0,0,1,400,300)">
                <circle cx="375" cy="375" r="25" style="fill:white;fill-opacity:0.1;"/>
            </g>
            <g transform="matrix(1,0,0,1,400,200)">
                <circle cx="375" cy="375" r="25" style="fill:white;fill-opacity:0.1;"/>
            </g>
            <g transform="matrix(1,0,0,1,400,100)">
                <circle cx="375" cy="375" r="25" style="fill:white;fill-opacity:0.1;"/>
            </g>
            <g transform="matrix(1,0,0,1,400,0)">
                <circle cx="375" cy="375" r="25" style="fill:white;fill-opacity:0.1;"/>
            </g>
            <g transform="matrix(1,0,0,1,400,-100)">
                <circle cx="375" cy="375" r="25" style="fill:white;fill-opacity:0.1;"/>
            </g>
        </g>
        <g id="Right3" serif:id="Right" transform="matrix(1,0,0,1,-350,-50)">
            <g transform="matrix(1,0,0,1,400,400)">
                <circle cx="375" cy="375" r="25" style="fill:white;fill-opacity:0.1;"/>
            </g>
            <g transform="matrix(1,0,0,1,400,300)">
                <circle cx="375" cy="375" r="25" style="fill:white;fill-opacity:0.1;"/>
            </g>
            <g transform="matrix(1,0,0,1,400,200)">
                <circle cx="375" cy="375" r="25" style="fill:white;fill-opacity:0.1;"/>
            </g>
            <g transform="matrix(1,0,0,1,400,100)">
                <circle cx="375" cy="375" r="25" style="fill:white;fill-opacity:0.1;"/>
            </g>
            <g transform="matrix(1,0,0,1,400,0)">
                <circle cx="375" cy="375" r="25" style="fill:white;fill-opacity:0.1;"/>
            </g>
        </g>
        <g id="Right4" serif:id="Right" transform="matrix(1,0,0,1,-450,-50)">
            <g transform="matrix(1,0,0,1,400,400)">
                <circle cx="375" cy="375" r="25" style="fill:white;fill-opacity:0.1;"/>
            </g>
            <g transform="matrix(1,0,0,1,400,300)">
                <circle cx="375" cy="375" r="25" style="fill:white;fill-opacity:0.1;"/>
            </g>
            <g transform="matrix(1,0,0,1,400,200)">
                <circle cx="375" cy="375" r="25" style="fill:white;fill-opacity:0.1;"/>
            </g>
            <g transform="matrix(1,0,0,1,400,100)">
                <circle cx="375" cy="375" r="25" style="fill:white;fill-opacity:0.1;"/>
            </g>
        </g>
        <g id="Right5" serif:id="Right" transform="matrix(1,0,0,1,-550,-50)">
            <g transform="matrix(1,0,0,1,400,400)">
                <circle cx="375" cy="375" r="25" style="fill:white;fill-opacity:0.1;"/>
            </g>
            <g transform="matrix(1,0,0,1,400,300)">
                <circle cx="375" cy="375" r="25" style="fill:white;fill-opacity:0.1;"/>
            </g>
            <g transform="matrix(1,0,0,1,400,200)">
                <circle cx="375" cy="375" r="25" style="fill:white;fill-opacity:0.1;"/>
            </g>
        </g>
        <g id="Right6" serif:id="Right" transform="matrix(1,0,0,1,-650,-50)">
            <g transform="matrix(1,0,0,1,400,400)">
                <circle cx="375" cy="375" r="25" style="fill:white;fill-opacity:0.1;"/>
            </g>
            <g transform="matrix(1,0,0,1,400,300)">
                <circle cx="375" cy="375" r="25" style="fill:white;fill-opacity:0.1;"/>
            </g>
        </g>
        <g transform="matrix(1,0,0,1,-350,350)">
            <g id="Right7" serif:id="Right">
                <circle cx="375" cy="375" r="25" style="fill:white;fill-opacity:0.1;"/>
            </g>
        </g>
    </g>
</svg>
