<?xml version="1.0" encoding="UTF-8" standalone="no"?>
<!DOCTYPE svg PUBLIC "-//W3C//DTD SVG 1.1//EN" "http://www.w3.org/Graphics/SVG/1.1/DTD/svg11.dtd">
<svg width="100%" height="100%" viewBox="0 0 483 102" version="1.1" xmlns="http://www.w3.org/2000/svg" xmlns:xlink="http://www.w3.org/1999/xlink" xml:space="preserve" xmlns:serif="http://www.serif.com/" style="fill-rule:evenodd;clip-rule:evenodd;stroke-linejoin:round;stroke-miterlimit:2;">
    <g transform="matrix(0.545322,0,0,0.545322,-61.4591,-85.5074)">
        <g transform="matrix(0.878941,0,4.77494e-32,0.878941,82.9675,12.5147)">
            <path d="M245.9,270.195C245.9,211.673 198.387,164.16 139.865,164.16C81.343,164.16 33.83,211.673 33.83,270.195C33.83,328.717 81.343,376.229 139.865,376.229C198.387,376.229 245.9,328.717 245.9,270.195Z" style="fill:rgb(245,73,82);"/>
        </g>
        <g transform="matrix(11.8972,0,0,11.8972,-1142.81,-2061.57)">
            <g id="Letters">
                <g>
                    <path d="M113.819,198.687C115.463,198.687 116.759,198.087 117.587,197.007L115.799,195.411C115.307,196.035 114.719,196.395 113.963,196.395C112.787,196.395 111.995,195.579 111.995,194.295C111.995,193.011 112.787,192.195 113.963,192.195C114.719,192.195 115.307,192.555 115.799,193.179L117.587,191.583C116.759,190.503 115.463,189.903 113.819,189.903C111.119,189.903 109.139,191.715 109.139,194.295C109.139,196.875 111.119,198.687 113.819,198.687Z" style="fill:white;fill-rule:nonzero;"/>
                    <path d="M123.431,198.495L126.455,198.495L124.691,195.903C125.699,195.387 126.275,194.475 126.275,193.263C126.275,191.319 124.787,190.095 122.447,190.095L118.403,190.095L118.403,198.495L121.235,198.495L121.235,196.383L122.003,196.383L123.431,198.495ZM123.419,193.263C123.419,193.875 123.047,194.247 122.267,194.247L121.235,194.247L121.235,192.279L122.267,192.279C123.047,192.279 123.419,192.651 123.419,193.263Z" style="fill:white;fill-rule:nonzero;"/>
                    <rect x="127.343" y="190.095" width="2.832" height="8.4" style="fill:white;fill-rule:nonzero;"/>
                    <path d="M134.675,198.687C137.279,198.687 138.587,197.391 138.587,195.855C138.587,192.759 133.943,193.599 133.943,192.591C133.943,192.303 134.207,192.063 135.035,192.063C135.767,192.063 136.547,192.267 137.375,192.687L138.227,190.635C137.351,190.143 136.187,189.903 135.059,189.903C132.455,189.903 131.147,191.175 131.147,192.735C131.147,195.867 135.791,195.015 135.791,196.071C135.791,196.359 135.503,196.527 134.699,196.527C133.775,196.527 132.719,196.227 131.927,195.759L131.015,197.823C131.855,198.339 133.271,198.687 134.675,198.687Z" style="fill:white;fill-rule:nonzero;"/>
                    <path d="M143.471,190.095L139.427,190.095L139.427,198.495L142.259,198.495L142.259,196.431L143.471,196.431C145.811,196.431 147.299,195.207 147.299,193.263C147.299,191.319 145.811,190.095 143.471,190.095ZM143.291,194.247L142.259,194.247L142.259,192.279L143.291,192.279C144.071,192.279 144.443,192.651 144.443,193.263C144.443,193.875 144.071,194.247 143.291,194.247Z" style="fill:white;fill-rule:nonzero;"/>
                    <path d="M156.383,190.095L153.647,190.095L151.919,192.999L150.203,190.095L147.215,190.095L150.383,195.411L150.383,198.495L153.215,198.495L153.215,195.447L156.383,190.095Z" style="fill:white;fill-rule:nonzero;"/>
                    <path d="M156.743,198.495L160.883,198.495C163.691,198.495 165.623,196.899 165.623,194.295C165.623,191.691 163.691,190.095 160.883,190.095L156.743,190.095L156.743,198.495ZM159.575,196.287L159.575,192.303L160.763,192.303C161.951,192.303 162.767,193.011 162.767,194.295C162.767,195.579 161.951,196.287 160.763,196.287L159.575,196.287Z" style="fill:white;fill-rule:nonzero;"/>
                    <rect x="166.655" y="190.095" width="2.832" height="8.4" style="fill:white;fill-rule:nonzero;"/>
                    <path d="M177.047,190.095L174.995,195.003L172.991,190.095L169.943,190.095L173.495,198.495L176.279,198.495L179.831,190.095L177.047,190.095Z" style="fill:white;fill-rule:nonzero;"/>
                </g>
            </g>
        </g>
    </g>
</svg>
