<?xml version="1.0" encoding="UTF-8"?> <svg xmlns="http://www.w3.org/2000/svg" width="175" height="30" viewBox="0 0 175 30" fill="none"><path d="M43.9372 5.87079H50.7771L56.6399 24.3278H51.0486L50.0714 20.8807H43.9643L42.9872 24.3278H38.0472L43.9372 5.87079ZM44.9686 17.2707H49.0129L47.0043 10.1593L44.9686 17.2707Z" fill="#2D2D2D"></path><path d="M58.2141 13.9862H56.5041V10.8377H58.2141V9.80627C58.2141 6.44058 60.2769 4.86631 63.4798 4.86631C64.3212 4.86631 64.9455 4.97488 65.5426 5.13773V8.53057C65.2169 8.42199 64.8097 8.34057 64.294 8.34057C63.2626 8.34057 62.8012 8.96485 62.8012 9.80627V10.8377H66.7369V9.64341C66.7369 6.27772 68.8269 4.67631 72.0297 4.67631C72.8711 4.67631 73.4683 4.78488 74.0654 4.94773V8.34057C73.7397 8.23199 73.3868 8.17771 72.844 8.17771C71.7854 8.17771 71.3511 8.77485 71.3511 9.64341V10.8377H74.0654V13.9862H71.3511V24.3276H66.7369V13.9862H62.8012V24.3276H58.2141V13.9862Z" fill="#2D2D2D"></path><path d="M75.1489 7.174C75.1489 5.81687 76.2346 4.78545 77.6732 4.78545C79.1118 4.78545 80.2246 5.81687 80.2246 7.174C80.2246 8.53113 79.1118 9.56255 77.6732 9.56255C76.2346 9.53541 75.1489 8.53113 75.1489 7.174ZM75.3932 10.8383H80.0075V24.3282H75.3932V10.8383Z" fill="#2D2D2D"></path><path d="M87.0666 4.89459H82.4795V24.3287H87.0666V4.89459Z" fill="#2D2D2D"></path><path d="M89.319 7.174C89.319 5.81687 90.4047 4.78545 91.8433 4.78545C93.2818 4.78545 94.3947 5.81687 94.3947 7.174C94.3947 8.53113 93.2818 9.56255 91.8433 9.56255C90.4047 9.53541 89.319 8.53113 89.319 7.174ZM89.5633 10.8383H94.1775V24.3282H89.5633V10.8383Z" fill="#2D2D2D"></path><path d="M95.831 20.5789C95.831 17.4032 98.5182 16.1547 102.997 16.1547H104.3V15.8561C104.3 14.5532 104.001 13.7118 102.508 13.7118C101.232 13.7118 100.771 14.4718 100.662 15.3132H96.3196C96.5368 12.0561 99.0882 10.4547 102.78 10.4547C106.498 10.4547 108.86 11.9747 108.86 15.5575V24.3246H104.354V22.7503C103.702 23.7275 102.508 24.6232 100.364 24.6232C97.9753 24.6503 95.831 23.456 95.831 20.5789ZM104.3 19.6018V18.7875H103.078C101.232 18.7875 100.391 19.1403 100.391 20.2532C100.391 21.0403 100.907 21.5289 101.992 21.5289C103.322 21.5289 104.3 20.7689 104.3 19.6018Z" fill="#2D2D2D"></path><path d="M111.66 20.0143V13.9886H110.031V10.8401H111.66V8.01722H116.274V10.8401H118.934V13.9886H116.274V19.5528C116.274 20.53 116.763 20.9643 117.631 20.9643C118.147 20.9643 118.527 20.8828 118.961 20.72V24.2214C118.364 24.3842 117.496 24.6014 116.41 24.6014C113.343 24.6557 111.66 23.19 111.66 20.0143Z" fill="#2D2D2D"></path><path d="M119.745 17.7561V17.5389C119.745 13.1961 122.975 10.4547 127.046 10.4547C130.738 10.4547 133.913 12.5718 133.913 17.4304V18.6518H124.413C124.549 20.4432 125.581 21.4746 127.236 21.4746C128.756 21.4746 129.408 20.7689 129.598 19.8732H133.941C133.533 22.9132 131.172 24.6503 127.101 24.6503C122.839 24.6503 119.745 22.1532 119.745 17.7561ZM129.408 16.0461C129.326 14.4175 128.539 13.5218 127.019 13.5218C125.635 13.5218 124.658 14.4175 124.441 16.0461H129.408Z" fill="#2D2D2D"></path><path d="M133.86 5.87079H139.208L141.596 17.3793L144.066 5.87079H148.762L151.449 17.4878L153.946 5.87079H158.859L154.543 24.3278H149.006L146.156 12.6022L143.333 24.3278H138.176L133.86 5.87079Z" fill="#2D2D2D"></path><path d="M160.406 5.87079H167.436C172.484 5.87079 174.846 8.12363 174.846 12.0322V12.1407C174.846 16.0221 172.24 18.1121 167.68 18.1121H165.672V24.3278H160.406V5.87079ZM167.192 14.5022C168.901 14.5022 169.797 13.715 169.797 12.1679V12.0593C169.797 10.485 168.874 9.83361 167.219 9.83361H165.672V14.475H167.192V14.5022Z" fill="#2D2D2D"></path><path d="M24.8262 17.0791C24.5548 17.0791 24.2834 17.1062 24.0119 17.1334L20.1034 10.1034C20.972 9.072 21.4877 7.74201 21.4877 6.30345C21.4877 3.01919 18.8277 0.359207 15.5434 0.359207C12.2592 0.359207 9.59919 3.04633 9.59919 6.30345C9.59919 7.71486 10.0878 9.01771 10.9292 10.0491L6.85778 17.1605C6.55921 17.1062 6.26064 17.0791 5.96207 17.0791C2.67781 17.0791 0.0178299 19.7391 0.0178299 23.0233C0.0178299 26.3076 2.67781 28.9676 5.96207 28.9676C9.24633 28.9676 11.9063 26.3076 11.9063 23.0233C11.9063 21.6119 11.4177 20.309 10.5763 19.2776L14.6477 12.1663C14.9463 12.2205 15.2449 12.2477 15.5434 12.2477C15.8149 12.2477 16.0863 12.2205 16.3577 12.1934L20.2662 19.2233C19.3977 20.2548 18.882 21.5848 18.882 23.0233C18.882 26.3076 21.542 28.9676 24.8262 28.9676C28.1105 28.9676 30.7705 26.3076 30.7705 23.0233C30.7705 19.7391 28.1105 17.0791 24.8262 17.0791ZM15.5434 4.26775C16.6563 4.26775 17.5791 5.1906 17.5791 6.30345C17.5791 7.41629 16.6563 8.33914 15.5434 8.33914C14.4306 8.33914 13.5077 7.41629 13.5077 6.30345C13.5077 5.1906 14.4306 4.26775 15.5434 4.26775ZM5.96207 25.059C4.84922 25.059 3.92637 24.1362 3.92637 23.0233C3.92637 21.9105 4.84922 20.9876 5.96207 20.9876C7.07492 20.9876 7.99777 21.9105 7.99777 23.0233C7.99777 24.1362 7.07492 25.059 5.96207 25.059ZM24.8262 25.059C23.7134 25.059 22.7905 24.1362 22.7905 23.0233C22.7905 21.9105 23.7134 20.9876 24.8262 20.9876C25.9391 20.9876 26.8619 21.9105 26.8619 23.0233C26.8619 24.1362 25.9662 25.059 24.8262 25.059Z" fill="#E34F43"></path></svg> 